<svg xmlns="http://www.w3.org/2000/svg" viewBox="0 0 243.18 71.23"><g id="レイヤー_2" data-name="レイヤー 2"><g id="レイヤー_1-2" data-name="レイヤー 1"><path d="M6.3,56.77a5.6,5.6,0,0,1-3.9-2.08,4.89,4.89,0,0,1-1.27-3.82v-.11c0-.23,0-2-.09-5.27a15.5,15.5,0,0,0-.26-1.91,22.49,22.49,0,0,1-.39-3.39C.37,39.51.3,38.75.22,38S0,36,0,34.89A14.37,14.37,0,0,1,.33,32a11.38,11.38,0,0,0,.3-2.45c0-.69,0-1.37-.05-2,0-1.29-.07-2.54-.07-3.75v-1.5c0-1.48,0-2.92,0-4.3s.09-2.55.17-3.74c0-.7.08-1.39.11-2.06A16.14,16.14,0,0,0,.56,9.53a15.14,15.14,0,0,1-.2-3.24,6.11,6.11,0,0,1,2-4.06,6.42,6.42,0,0,1,4-1.45h.36a4.69,4.69,0,0,1,1.41.37C9.3,1,10.4.84,11.47.73l1.2-.12c.57-.07,1.14-.16,1.7-.24A24.13,24.13,0,0,1,18,0h.11a40.42,40.42,0,0,1,5.31.37,17.42,17.42,0,0,1,5.19,1.82c.51.25,1,.49,1.51.7l1.31.52a14.17,14.17,0,0,1,5.25,2.94,12.32,12.32,0,0,1,2.7,5.15q.25.77.54,1.53s0,.09,0,.13c.26.85.56,1.66.85,2.44.75,2,1.39,3.7,1.18,5.46a14.47,14.47,0,0,1-2.32,5.77,11.31,11.31,0,0,1-3.8,3.49l-.49.32-.76.52A18.57,18.57,0,0,1,31,33.23l-.52.2a21.31,21.31,0,0,1-4.26,1.37,47,47,0,0,1-5.63.7c-.44,0-.89,0-1.33,0-.85,0-1.69,0-2.51-.1-.6,0-1.21-.08-1.83-.09h-.48l-1.43,0c-.42,0-.85,0-1.29,0,0,.27.06.55.1.81.11,1,.21,1.88.23,2.82a22.75,22.75,0,0,1-.27,3.68,15.46,15.46,0,0,0-.2,2.17A26.14,26.14,0,0,0,12,48.6a14.36,14.36,0,0,1,.24,2.16,6,6,0,0,1-1.77,4.16A6.1,6.1,0,0,1,6.3,56.77Zm5.41-32.14c1.53.14,3.12.21,4.73.21h.94a36.22,36.22,0,0,0,6.73-.75,15.87,15.87,0,0,0,4.51-1.41c.87-.5,1.29-1.34,1.48-3a14.07,14.07,0,0,0-.61-2.73,5.82,5.82,0,0,0-2.82-3.14,13.19,13.19,0,0,0-4.85-1.54,35.08,35.08,0,0,0-4.51-.36c-.43,0-.87,0-1.32,0a31,31,0,0,0-4.11.64v1.06c0,.68,0,1.38,0,2.18a13.61,13.61,0,0,1-.43,2.75,11.1,11.1,0,0,0-.36,2.37,9.8,9.8,0,0,0,.32,2C11.51,23.5,11.63,24.05,11.71,24.63Z"/><path d="M59.09,56.44a20,20,0,0,1-6.08-1,14.12,14.12,0,0,1-4.91-3.17l-.48-.43-.9-.7a11,11,0,0,1-2.9-2.84,15.75,15.75,0,0,1-1.8-5c-.9-3.81-1-6.77-.29-9.3a31.69,31.69,0,0,1,3.14-7.76A25.5,25.5,0,0,1,49.34,21l.7-.7.51-.51a22,22,0,0,1,5.3-4.3,14,14,0,0,1,6.65-1.28h1A18.31,18.31,0,0,1,71.68,16a4,4,0,0,1,1.21,1,4.23,4.23,0,0,0,.3.3c.21.19.42.34.6.49s.43.33.62.49l.08.08a3.77,3.77,0,0,1,1.13.79,3.07,3.07,0,0,1,.66,1A5.05,5.05,0,0,1,78,23.38c.25,1.19.4,2.38.55,3.55l.12,1c.2,1.46.31,2.94.42,4.7.2,3.26.12,6.23.05,9.1l-.06,1.74c-.07,2.25-.14,4.59,0,7a4.85,4.85,0,0,1-1.22,3.88A5.28,5.28,0,0,1,74,56.05h-.39A5.06,5.06,0,0,1,70,54.71a9.88,9.88,0,0,1-1-1.07A13.84,13.84,0,0,1,66.49,55a20.72,20.72,0,0,1-6.63,1.39C59.6,56.44,59.34,56.44,59.09,56.44Zm4.68-31.51a7.07,7.07,0,0,0-2.94.68,12,12,0,0,0-3.14,2.58l-.07.07a18.32,18.32,0,0,0-2.69,3.26,14.21,14.21,0,0,0-1.12,2.74c-.13.4-.25.79-.39,1.16a10.86,10.86,0,0,0-.84,3.69,5.66,5.66,0,0,0,2.05,4.52A6.12,6.12,0,0,0,57.69,45a13.65,13.65,0,0,0,2,.16,7.87,7.87,0,0,0,2.13-.26l.19-.19a3.54,3.54,0,0,1,1.16-.9l.46-.19a7.7,7.7,0,0,0,1-.45A6.61,6.61,0,0,1,66,42.63a2.9,2.9,0,0,0,.76-.3,3.87,3.87,0,0,0,.51-.86c.19-.37.4-.79.67-1.21a1.71,1.71,0,0,1,.21-.26c0-.6-.09-1.2-.15-1.78-.06-.75-.13-1.48-.16-2.19,0-1.2-.19-2.36-.32-3.48-.07-.54-.13-1.07-.19-1.59-.09-.93-.09-1.83-.1-2.62,0-.47,0-.94,0-1.37a3,3,0,0,1-.42-.33,2,2,0,0,1-.57-1.06l-.13-.18A5.84,5.84,0,0,0,63.77,24.93Z"/><path d="M100.78,71.23A21.39,21.39,0,0,1,94,70.16c-3.25-1.1-5.26-3.69-6.88-5.77l-.08-.1A11,11,0,0,1,85.08,61a5.93,5.93,0,0,1,3.35-7.32,7,7,0,0,1,2-.33,4.82,4.82,0,0,1,2.31.57,5.52,5.52,0,0,1,2.48,3.43l0,.12a2.16,2.16,0,0,1,.09.2A6.76,6.76,0,0,1,95.83,59a1.36,1.36,0,0,0,.47.74,15.87,15.87,0,0,0,4.86.62l1.33,0A7.31,7.31,0,0,0,106.64,59l.33-.23c.72-.51,1.53-1.09,1.65-1.47a28.86,28.86,0,0,0,.67-3.11c-.28.14-.55.25-.83.36a7.33,7.33,0,0,1-2.63.4h-.78l-.74,0c-.3,0-.61,0-.92,0l-1.28.07c-1,.05-2,.11-3,.11a13.47,13.47,0,0,1-5.3-.88,15.92,15.92,0,0,1-6.58-5.42,20.78,20.78,0,0,1-3.49-7,26.6,26.6,0,0,1-.68-9.09c0-.42.06-.8.08-1.18a17.85,17.85,0,0,1,1.3-6.75,16.2,16.2,0,0,1,4.67-5.28l.79-.67.88-.72a14.75,14.75,0,0,1,4-2.63,19.42,19.42,0,0,1,5.81-1.05l.31,0c.91-.07,1.84-.14,2.83-.14a17,17,0,0,1,2.66.2l.31.08a26.19,26.19,0,0,1,3.11,1.23,5.54,5.54,0,0,1,3.54-2.49,1.12,1.12,0,0,1,.31-.05,2.88,2.88,0,0,1,.41,0,6,6,0,0,1,4,1.65,6.08,6.08,0,0,1,2.06,3.58s0,.08,0,.12a14.75,14.75,0,0,1-.15,3.06,13.34,13.34,0,0,0-.15,2.4,12.55,12.55,0,0,0,.41,2.09,15.13,15.13,0,0,1,.58,3.27c0,.73.12,1.5.21,2.3.11,1,.23,2,.25,3.1a19.09,19.09,0,0,1-.22,3,17.69,17.69,0,0,0-.2,2.45,37.82,37.82,0,0,1-.22,3.82c-.08.8-.15,1.56-.17,2.27a15.45,15.45,0,0,0,.25,2.78,14,14,0,0,1,.22,3.43,20,20,0,0,1-1.07,4.57c-.16.47-.3.91-.42,1.35l-.18.63A15,15,0,0,1,117,64.54a15.36,15.36,0,0,1-6.84,5.06,31.09,31.09,0,0,1-7.27,1.54Q101.83,71.23,100.78,71.23Zm2.4-27.36a6,6,0,0,0,2.63-.45,1.66,1.66,0,0,1,.31-.12,5.22,5.22,0,0,0,4-4.83,28.67,28.67,0,0,0-.55-7.62,5.54,5.54,0,0,0-2.18-3.23,7,7,0,0,0-3-.95,9.66,9.66,0,0,0-1.62-.14,16.59,16.59,0,0,0-2.41.22A6.35,6.35,0,0,0,97,27.86c-1.5,1.21-2.32,3.09-2.58,5.8v.15a16.65,16.65,0,0,0,.07,4.24,8.55,8.55,0,0,0,1.87,3.58c1.3,1.53,3.18,2.23,6.06,2.23h.76Z"/><path d="M148.6,56.38l-2.42,0h-.62c-.53,0-1.06-.05-1.58-.06a18.41,18.41,0,0,1-3.51-.32,25.12,25.12,0,0,1-5-1.61A17.1,17.1,0,0,1,129,48.87c-.42-.56-.86-1.08-1.28-1.57a14,14,0,0,1-2.51-3.66,18.91,18.91,0,0,1-1.29-5.23,21,21,0,0,1,.32-4.63c.07-.54.15-1.1.22-1.69a21,21,0,0,1,2.32-6.72,21.1,21.1,0,0,1,4.64-6,21.53,21.53,0,0,1,7.26-4.1,16.61,16.61,0,0,1,5.24-.76,33.32,33.32,0,0,1,3.84.25,19.6,19.6,0,0,1,13.77,7.31,10,10,0,0,1,1.78,3.87,3.1,3.1,0,0,0,.13.45h0l.29.29a4.33,4.33,0,0,1,1.13,1.68,5.58,5.58,0,0,1,.23,1.66,2.81,2.81,0,0,0,0,.3c0,.07.09.21.15.36a8.86,8.86,0,0,1,.38,1.11,5.58,5.58,0,0,1,.08,1.54,3.72,3.72,0,0,0,0,.58,6.88,6.88,0,0,1-.71,3.51,5.63,5.63,0,0,1-2.57,2.41,2.1,2.1,0,0,1-.26.13l-.39.18a4.73,4.73,0,0,1-2.21.62c-.87,0-1.51,0-2,0h-2l-2.13,0a20.69,20.69,0,0,0-2.82.23,21.7,21.7,0,0,1-3.34.26h-.12a30,30,0,0,1-3.93-.31,19.28,19.28,0,0,0-2.38-.22l-4,.06a6.47,6.47,0,0,0,2.16,2.7,14.62,14.62,0,0,0,7.25,2.32H147a15.52,15.52,0,0,0,3.42-.38,11.34,11.34,0,0,0,2.12-.9l.4-.22.74-.34a16.44,16.44,0,0,0,1.51-.76,1.77,1.77,0,0,1,.31-.15,6.76,6.76,0,0,1,2.26-.45,4.69,4.69,0,0,1,2,.45,5.8,5.8,0,0,1,3.06,3.15,5.9,5.9,0,0,1-.07,4.44,6.75,6.75,0,0,1-3,2.85,7.57,7.57,0,0,1-2,.69,6.06,6.06,0,0,0-.78.21,6.85,6.85,0,0,0-.75.35A15.21,15.21,0,0,1,153.31,56,19.13,19.13,0,0,1,148.6,56.38Zm-3.75-30.33a7.44,7.44,0,0,0-4.7,1.55A13.53,13.53,0,0,0,137.53,30l2-.06c.66,0,1.37-.06,2.14-.12,1-.07,2.09-.16,3.28-.18.75,0,1.52,0,2.33-.07,1,0,2-.07,3.1-.08h.49c.66,0,1.31,0,2,0a5.63,5.63,0,0,0-.49-.81c-1.31-1.47-3.12-2.25-6-2.59A11.44,11.44,0,0,0,144.85,26.05Z"/><path d="M237.23,56.05h-.4a5.47,5.47,0,0,1-4.1-1.43,5.81,5.81,0,0,1-1.45-4.25,1,1,0,0,1,0-.17c0-.19,0-.84,0-1.41-.05-1-.11-2.35-.09-4.07a13.81,13.81,0,0,1,.39-2.74,15.4,15.4,0,0,0,.41-3c0-.83,0-1.69.07-2.6s.09-2,.09-3.13a21.12,21.12,0,0,0-.28-2.88,21,21,0,0,1-.27-2.86c0-1.28.08-2.46.16-3.5,0-.49.07-1,.09-1.4-.44.53-.9,1-1.35,1.52a19.55,19.55,0,0,0-1.8,2.13c-1,1.47-2,3-3.12,4.63-.5.76-1,1.56-1.5,2.41s-.93,1.56-1.44,2.34A5.79,5.79,0,0,1,219,38.5a6.15,6.15,0,0,1-1.15.11,6.46,6.46,0,0,1-3.4-.94,2.48,2.48,0,0,1-.3-.25,1.9,1.9,0,0,1-.49-.74,5,5,0,0,1-.86-.86c-.57-.8-1.26-1.67-2.07-2.68-.4-.5-.82-1-1.26-1.6s-.81-1.05-1.24-1.62c-.65-.87-1.33-1.76-2.08-2.68-.55-.68-1.06-1.43-1.54-2.14s-1.07-1.57-1.68-2.3c-.44-.53-.79-1-1.08-1.42,0,.25,0,.5,0,.75a25.43,25.43,0,0,0,.23,2.61,29.33,29.33,0,0,1,.29,3.62c0,.74,0,1.6,0,2.6s0,1.81-.05,2.86a15,15,0,0,1-.38,2.77,15.05,15.05,0,0,0-.37,2.67c0,1.05,0,2.06.1,3s.09,1.74.08,2.58A20.9,20.9,0,0,0,202,48a19.23,19.23,0,0,1,.22,2.43,4,4,0,0,1-2,3.22,4.93,4.93,0,0,0-.49.39,4.58,4.58,0,0,1-3.62,1.53c-.2,0-.4,0-.6,0s-.63.06-.93.06a3.68,3.68,0,0,1-2.69-1,6.2,6.2,0,0,1-1.77-4.22,14.3,14.3,0,0,1,.32-2.61,17,17,0,0,0,.37-3,16.93,16.93,0,0,0-.19-2.19,23.86,23.86,0,0,1-.26-3.44,24.21,24.21,0,0,1,.33-3.31,19.1,19.1,0,0,0,.23-2.15c0-1.54,0-2.88,0-4V28.29c0-1-.06-2-.12-2.91s-.09-1.67-.1-2.49a25.72,25.72,0,0,1,.17-3,17.35,17.35,0,0,0,.14-2.42,16.06,16.06,0,0,0-.4-2.65,19.59,19.59,0,0,1-.42-2.69c-.06-.94-.06-1.82-.07-2.67s0-1.86-.1-2.67a5.45,5.45,0,0,1,1-4.18A5.32,5.32,0,0,1,194.77.87l.08,0a3.39,3.39,0,0,1,1.47-.38,2.42,2.42,0,0,1,.47,0,5.9,5.9,0,0,1,4,2.37l3.57,4.23c.85,1,1.29,1.46,1.77,1.94s1,1.05,2,2.17,1.33,1.55,1.78,2.05.94,1.06,1.86,2.15a18.73,18.73,0,0,1,2,3.13A15.07,15.07,0,0,0,215,20.59a22.31,22.31,0,0,0,2,2l.43.4.47-.52a15.9,15.9,0,0,0,1.44-1.73,16.23,16.23,0,0,0,1.21-2.23,18.71,18.71,0,0,1,1.53-2.75c.48-.66.92-1.33,1.36-2,.6-.9,1.22-1.82,1.87-2.68,1.21-1.59,2.39-3,3.53-4.41a22,22,0,0,1,2.62-2.6c.56-.5,1.09-1,1.52-1.43a2.5,2.5,0,0,1,1.25-.7h0a4.54,4.54,0,0,1,3.27-1.7h.18a6,6,0,0,1,4,1.82,5.08,5.08,0,0,1,1.08,4v.14c0,.52,0,1.09-.07,1.68-.06,1.18-.12,2.47-.14,3.87a16.94,16.94,0,0,0,.19,2.33,23,23,0,0,1,.26,3.26,19.25,19.25,0,0,1-.28,2.87,18.55,18.55,0,0,0-.27,2.72c0,.9,0,1.83.05,2.79s0,1.85.05,2.81.08,1.84.15,2.73.14,1.88.15,2.82,0,1.86.07,2.75.07,1.9.06,2.8.05,1.88.11,2.78.11,1.88.09,2.79c0,1.44-.09,2.76-.15,3.93,0,.58-.06,1.13-.08,1.65a5.77,5.77,0,0,1-2.09,3.87A5.05,5.05,0,0,1,237.23,56.05Z"/></g></g></svg>